<svg width="386" height="119" viewBox="0 0 386 119" fill="none" xmlns="http://www.w3.org/2000/svg">
<path d="M112.071 118.949L100.621 87.6478H105.901L115.559 114.632L135.821 87.6478H141.101L117.296 118.949H112.071ZM145.128 118.949L151.278 87.6478H155.788L149.638 118.949H145.128ZM152.424 81.8193L153.293 77.3939H157.803L156.934 81.8193H152.424ZM212.202 118.949L218.353 87.6478H222.863L216.712 118.949H212.202ZM219.498 81.8193L220.368 77.3939H224.878L224.008 81.8193H219.498ZM235.743 118.949C234.533 118.949 233.471 118.661 232.557 118.086C231.687 117.474 231.036 116.683 230.604 115.711C230.215 114.704 230.137 113.606 230.371 112.419L233.955 94.1779C234.188 92.9906 234.694 91.9113 235.471 90.9398C236.293 89.9324 237.255 89.1409 238.358 88.5653C239.505 87.9536 240.683 87.6478 241.893 87.6478H261.033C262.28 87.6478 263.338 87.9536 264.208 88.5653C265.121 89.1409 265.773 89.9324 266.161 90.9398C266.594 91.9113 266.693 92.9906 266.46 94.1779L264.233 105.511H236.238L234.881 112.419C234.768 112.995 234.87 113.498 235.189 113.93C235.551 114.326 236.025 114.524 236.612 114.524H262.462L261.593 118.949H235.743ZM237.108 101.086H260.538L261.895 94.1779C262.008 93.6023 261.884 93.1166 261.521 92.7208C261.203 92.2891 260.75 92.0732 260.164 92.0732H241.024C240.437 92.0732 239.881 92.2891 239.356 92.7208C238.875 93.1166 238.578 93.6023 238.465 94.1779L237.108 101.086Z" fill="#F7F7F7"/>
<path d="M161.738 118.949L161.95 117.87L181.286 99.5208L169.161 81.1716L169.374 80.0923H176.249L186.092 94.9335L201.714 80.0923H208.589L208.376 81.1716L189.041 99.5208L201.22 117.87L201.008 118.949H194.078L184.235 104.108L168.613 118.949H161.738Z" fill="#08A8CE"/>
<path d="M123.073 34.2224C123.073 34.2224 43.7415 28.8918 0 64.481C0 64.481 24.4576 35.1632 87.4838 28.8918C114.764 18.0738 142.514 4.90459 174.654 1.14124C206.794 -2.62128 261.981 3.33653 294.905 12.9001C294.905 12.9001 237.21 29.8327 206.324 28.4214C228.958 27.1578 257.591 14.1545 257.591 14.1545C220.277 4.27738 195.036 3.33654 168.069 8.35351C141.102 13.3705 98.4578 29.3622 98.4578 29.3622C103.946 31.2439 123.073 34.2224 123.073 34.2224ZM371.415 25.7565C371.415 25.7565 382.076 24.0316 385.055 19.4851C371.572 23.0908 323.91 20.2691 309.134 16.193C288.714 26.5405 236.249 34.5966 194.409 38.4562C294.906 32.2412 362.986 2.71013 383.27 61.6602C386.973 40.6506 371.415 25.7565 371.415 25.7565Z" fill="url(#paint0_linear_4_331)"/>
<path d="M51.9493 58.6792C58.6762 49.6591 71.1569 43.5942 85.452 43.5942C99.8474 43.5942 112.403 49.7445 119.095 58.8708H110.046C103.789 51.4827 93.0824 46.6101 80.9187 46.6101C68.8595 46.6109 58.2274 51.3981 51.9493 58.6792Z" fill="#08A8CE"/>
<path d="M277.325 54.0107C284.629 44.9906 298.179 38.9258 313.7 38.9258C329.33 38.9258 342.961 45.0761 350.228 54.2024H340.403C333.61 46.8142 321.985 41.9416 308.779 41.9416C295.685 41.9416 284.141 46.7288 277.325 54.0107Z" fill="#08A8CE"/>
<defs>
<linearGradient id="paint0_linear_4_331" x1="8.29663e-05" y1="32.2407" x2="385.055" y2="32.2407" gradientUnits="userSpaceOnUse">
<stop stop-color="#606060"/>
<stop offset="0.3116" stop-color="#908A90"/>
<stop offset="0.5531" stop-color="#BDBDBD"/>
<stop offset="0.82" stop-color="#807B82"/>
<stop offset="1" stop-color="#A3A3A3"/>
</linearGradient>
</defs>
</svg>
